<svg xmlns="http://www.w3.org/2000/svg" width="304.08" height="138.3" viewBox="0 0 304.08 138.3"><path d="M425.3,352.36a215.52,215.52,0,0,0,11.33,31.1,135,135,0,0,0,14.59,25c5.19,7.09,10.38,12.88,19,12.42,1.53-.08,3.27-1.3,4.22-4.46,1.06-3.51,1.09-8.59,1.81-14a129.72,129.72,0,0,1,3.86-17.94c2-7,6.34-10.76,9.53-10.49,6.14.52,11.5,14.83,19.53,23.63a29.71,29.71,0,0,0,21.58,9.28c14.11-.13,29.3-9.52,44.48-9.52,10.09,0,16.72,6.09,24.36,10.13A44,44,0,0,0,621,412.33c13.59-.35,26.22-8.31,39.18-14.83,9.34-4.7,19.38-8.57,27.54-8.71,5.13-.09,16.43,3.42,25.23,6.08,6.82,2.06,12.1,3.41,12.14,3.45s-7-3.83-14.89-7.59c-9.27-4.41-21.19-9.42-30-8.64-22.17,2-41.89,22.13-54.8,21.24-23.84-1.64-33.42-14.27-47.16-14.46-24.56-.35-34,9.67-54.71,2.92-16.15-5.25-26.48-27.4-40.11-26.93-5.78.2-8.56,6-11.18,15.62-3.1,11.43-4.54,26.75-11.74,24.43-13.43-4.31-22.87-37.16-24.3-44.19-1.69-8.29-7.39-33.68,1.05-40.76,10.41-8.74,30.63,1.68,45,.74C501,319.48,501.53,310,501.52,310c-9.87,1.87-15.35,1.85-20.39,1-7.6-1.25-9.52-3.31-23-7.09-15-4.19-25.84-1.11-31.87,7C417.56,322.62,421.36,338.81,425.3,352.36Z" transform="translate(-420.98 -282.61)" fill="#1b3b69"/><path d="M535.64,315.78c-.58,6.19-5.7,20.29-5.92,19.41-.89-3.47,1.5-15.22.1-24.84-1.43-9.92-6.71-17.67-11.33-17.67-14.27,0-29.81,20.48-40.35,10.57a10.71,10.71,0,0,0,9.21-2.16c6.52-5.27,14.45-16.44,22.8-17.93,7.77-1.39,15.26-.3,19.94,5.32S536.54,306.25,535.64,315.78Z" transform="translate(-420.98 -282.61)" fill="#7cb3d2"/><text transform="translate(87.96 91.32)" font-size="40" fill="#1b3b69" font-family="Roboto-Bold, Roboto" font-weight="700" letter-spacing="0.04em">My<tspan x="58" y="0" fill="#7cb3d2">Dental</tspan></text></svg>